<?xml version="1.0" encoding="UTF-8" standalone="no"?>
<svg
   id="main"
   height="300mm"
   width="210mm"
   version="1.1"
   viewBox="0 0 210 300"
   sodipodi:docname="bho.svg"
   inkscape:version="1.3 (0e150ed6c4, 2023-07-21)"
   xmlns:inkscape="http://www.inkscape.org/namespaces/inkscape"
   xmlns:sodipodi="http://sodipodi.sourceforge.net/DTD/sodipodi-0.dtd"
   xmlns="http://www.w3.org/2000/svg"
   xmlns:svg="http://www.w3.org/2000/svg">
  <defs
     id="defs4" />
  <sodipodi:namedview
     id="namedview4"
     pagecolor="#ffffff"
     bordercolor="#000000"
     borderopacity="0.25"
     inkscape:showpageshadow="2"
     inkscape:pageopacity="0.0"
     inkscape:pagecheckerboard="0"
     inkscape:deskcolor="#d1d1d1"
     inkscape:document-units="mm"
     inkscape:zoom="0.43333333"
     inkscape:cx="504.23078"
     inkscape:cy="698.07694"
     inkscape:window-width="1280"
     inkscape:window-height="729"
     inkscape:window-x="-8"
     inkscape:window-y="1072"
     inkscape:window-maximized="1"
     inkscape:current-layer="g4" />
  <g
     fill="none"
     stroke-opacity=".5"
     id="g4">
    <path
       id="consonant_b"
       d="m 112.5,125.12 c 0,-11.333 -0.1841,-25.586 0,-38.823"
       stroke="#000000"
       style="stroke-width:15;stroke-linecap:round;stroke-linejoin:round" />
    <path
       id="ellipse4"
       style="stroke:#000000;stroke-width:14.9995;stroke-linecap:round;stroke-linejoin:round;stroke-opacity:0.5"
       d="m 172.49811,166.51453 a 49.758876,63.111074 59.666325 0 1 -59.98846,63.29979 49.758876,63.111074 59.666325 0 1 -59.988466,-41.39822 49.758876,63.111074 59.666325 0 1 59.988466,-63.29978 49.758876,63.111074 59.666325 0 1 59.98846,41.39821 z" />
    <path
       d="m 60.97,122.08 v 3 a 3,3 0 0 0 0,-6 3,3 0 0 0 0,6 v -3"
       stroke="#800080"
       id="path1"
       style="stroke-width:15;stroke-linecap:round;stroke-linejoin:round" />
    <path
       id="vowel_o_00"
       d="m 30,86.183 c 0,-35.83 -0.26714,-62.872 25.851,-62.835 30.047,0.84916 60.73,38.966 71.663,62.946"
       stroke="#0000ff"
       style="stroke-width:15;stroke-linecap:round;stroke-linejoin:round" />
    <path
       id="vowel_o_01"
       d="m 30,229.79 c 0.40867,-47.88 -0.1058,-95.619 0,-143.5"
       stroke="#0000ff"
       style="stroke-width:15;stroke-linecap:round;stroke-linejoin:round" />
    <path
       id="baseline"
       d="m 7.5,229.86 h 195"
       stroke="#ffff00"
       style="stroke-width:15;stroke-linecap:round;stroke-linejoin:round" />
    <path
       id="nautuhoma_e"
       d="m 7.5,86.366 h 195"
       stroke="#800000"
       style="stroke-width:15;stroke-linecap:round;stroke-linejoin:round" />
    <rect
       x="22.5"
       y="7.5"
       width="165"
       height="285"
       rx="0"
       ry="0"
       id="rect3"
       style="stroke:#540054;stroke-width:15" />
  </g>
</svg>
