<?xml version="1.0" encoding="UTF-8"?>
<svg id="main" width="210mm" height="300mm" version="1.1" viewBox="0 0 210 300" xmlns="http://www.w3.org/2000/svg">
 <g id="g4" fill="none" stroke-opacity=".5">
  <g stroke-linecap="round" stroke-linejoin="round">
   <path id="consonant_b" d="m112.5 125.12c0-11.333-0.1841-25.586 0-38.823" stroke="#000000" stroke-width="15"/>
   <path id="ellipse4" d="m172.5 166.51a49.759 63.111 59.666 0 1-59.988 63.3 49.759 63.111 59.666 0 1-59.988-41.398 49.759 63.111 59.666 0 1 59.988-63.3 49.759 63.111 59.666 0 1 59.988 41.398z" stroke="#000000" stroke-opacity=".5" stroke-width="15"/>
   <g stroke-width="15">
    <path id="path1" d="m60.97 122.08v3a3 3 0 0 0 0-6 3 3 0 0 0 0 6v-3" stroke="#800080"/>
    <path id="vowel_o_00" d="m30 86.183c0-35.83-0.26714-62.872 25.851-62.835 30.047 0.84916 60.73 38.966 71.663 62.946" stroke="#0000ff"/>
    <path id="vowel_o_01" d="m30 229.79c0.40867-47.88-0.1058-95.619 0-143.5" stroke="#0000ff"/>
    <path id="baseline" d="m7.5 229.86h195" stroke="#ffff00"/>
    <path id="nautuhoma_e" d="m7.5 86.366h195" stroke="#800000"/>
   </g>
  </g>
  <rect id="rect3" x="22.5" y="7.5" width="165" height="285" rx="0" ry="0" stroke="#540054" stroke-width="15"/>
 </g>
</svg>
