<?xml version="1.0" encoding="UTF-8"?>
<!-- Created with Inkscape (http://www.inkscape.org/) -->
<svg id="svg5" width="660mm" height="300mm" version="1.1" viewBox="0 0 660 300" xml:space="preserve"
    xmlns="http://www.w3.org/2000/svg">
    <g fill="none" stroke-linecap="round" stroke-linejoin="round" stroke-opacity=".5">
        <path id="baseline" d="m7.5 229.79 645-2e-5" stroke="#ffff00" stroke-width="15" />
        <path id="axis1" d="m7.5 86.293h645" stroke="#800000" stroke-width="15" />
        <path id="consonant_h_00" d="m37.564 86.61v104.89" stroke="#000000" stroke-width="15"
            style="paint-order:markers fill stroke" />
        <path id="consonant_h_01" transform="matrix(0,-1,-1,0,0,0)"
            d="m-192.84-37.564a37.226 37.5 0 0 1-32.239-18.75 37.226 37.5 0 0 1 0-37.5 37.226 37.5 0 0 1 32.239-18.75"
            stroke="#000000" stroke-width="15" style="paint-order:fill markers stroke" />
        <path id="vowel_e_3-1" d="m37.564 86.226s20.534-41.854 62.61-62.946" stroke="#0000ff" stroke-width="15"
            style="paint-order:markers fill stroke" />
        <g stroke="#000000" stroke-width="15">
            <path id="consonant_m_00"
                d="m172.5 86.214c-22.5 20.323-30 41.386-29.997 54.822-0.37348 7.3367 4.1622 15.45 10.142 17.077 8.114 1.9618 21.081-4.1317 29.195-6.0934 24.567-9.819 65.659-26.864 65.659 15.406 0 27.926-52.5 44.554-52.5 44.554"
                style="paint-order:fill markers stroke" />
            <path id="consonant_m_01" d="m195 86.214v143.78" style="paint-order:fill markers stroke" />
            <path id="consonant_s_00" d="m352.56 86.293-1.1e-4 92.756v51.024" style="paint-order:fill markers stroke" />
            <path id="consonant_s_01"
                d="m318.24 223.93c-39.973-7.3139-66.232-98.818-0.65627-98.818 25.951 0 12.042-0.094 34.981 0"
                style="paint-order:stroke markers fill" />
        </g>
        <g stroke-width="15">
            <path id="vowel_aa" transform="scale(-1)"
                d="m-352.63-230.11a29.539 28.776 0 0 1-8.8871-32.675 29.539 28.776 0 0 1 29.132-18.362 29.539 28.776 0 0 1 26.954 21.287"
                stroke="#0000ff" style="paint-order:markers fill stroke" />
            <path id="consonant_n"
                d="m404.34 231.43c48.544-11.531 83.956-88.856 18.292-87.667-18.802 0.34027-24.18 5.4618-40.135 11.175l0.0414-41.458h67.611v-27.191"
                stroke="#000000" style="paint-order:stroke markers fill" />
            <path id="dot_n_to_nr" d="m375 183.24v3a3 3 0 0 0 0-6 3 3 0 0 0 0 6v-3" stroke="#800080"
                style="paint-order:stroke markers fill" />
        </g>
        <g stroke="#0000ff">
            <path id="vowel_au_00" transform="matrix(0 1 .99997 .0076006 0 0)"
                d="m83.129 450.3a44.279 33.963 0 0 1-38.346-16.982 44.279 33.963 0 0 1 0-33.963 44.279 33.963 0 0 1 38.346-16.982"
                stroke-width="14.999" style="paint-order:markers fill stroke" />
            <path id="vowel_au_01" transform="matrix(0,1,1,0,0,0)"
                d="m86.183 517.39a63.213 33.695 0 0 1-54.744-16.847 63.213 33.695 0 0 1-1e-6 -33.695 63.213 33.695 0 0 1 54.744-16.847"
                stroke-width="15" style="paint-order:markers fill stroke" />
            <path id="vowel_au_02"
                d="m532.46 281.25c-8.7772-11.667-12.883-22.508-14.682-41.438-2.5386-26.709-0.48568-69.52-0.48568-153.47"
                stroke-width="15" style="paint-order:markers fill stroke" />
        </g>
        <g stroke="#000000">
            <path id="consonant_t_00" d="m547.5 86.293v61.506" stroke-width="15"
                style="paint-order:fill markers stroke" />
            <path id="consonant_t_01" transform="matrix(0,-1,-1,0,0,0)"
                d="m-146.24-547.5a31.247 37.464 0 0 1-27.061-18.732 31.247 37.464 0 0 1 0-37.464 31.247 37.464 0 0 1 27.061-18.732"
                stroke-width="15" style="paint-order:fill markers stroke" />
            <path id="consonant_t_02" d="m622.42 86.293v143.49" stroke-width="15"
                style="paint-order:fill markers stroke" />
        </g>
        <path id="dot_t_to_tr" d="m540 206.08v3a3 3 0 0 0 0-6 3 3 0 0 0 0 6v-3" stroke="#800080" stroke-width="15"
            style="paint-order:stroke markers fill" />
        <path id="vowel_u" transform="scale(1,-1)"
            d="m622.42-229.77a34.175 21.716 0 0 1-43.462-10.482 34.175 21.716 0 0 1 13.199-28.324 34.175 21.716 0 0 1 45.437 6.2444"
            stroke="#0000ff" stroke-width="15" style="paint-order:fill markers stroke" />
    </g>
    <g id="layer1" fill="none" stroke-opacity=".5" stroke-width="15">
        <rect id="box1-1" x="22.5" y="7.5" width="105" height="285" rx="0" ry="0" stroke="#540054" />
        <rect id="box1-3" x="262.5" y="7.5" width="105" height="285" rx="0" ry="0" stroke="#540054" />
        <rect id="box1-4" x="367.5" y="7.5" width="165" height="285" rx="0" ry="0" stroke="#ff00ff" />
        <rect id="box1-5" x="532.5" y="7.5" width="105" height="285" rx="0" ry="0" stroke="#540054" />
        <rect id="rect261" x="127.5" y="7.5" width="135" height="285" rx="0" ry="0" stroke="#ab00ab" />
    </g>
</svg>