<?xml version="1.0" encoding="UTF-8"?>
<!-- Created with Inkscape (http://www.inkscape.org/) -->
<svg width="495mm" height="300mm" version="1.1" viewBox="0 0 495 300" xml:space="preserve"
    xmlns="http://www.w3.org/2000/svg">
    <g fill="none" stroke-width="15">
        <g stroke-linecap="round" stroke-linejoin="round" stroke-opacity=".5">
            <path id="baseline" d="m7.5 229.79h480" stroke="#ffff00" />
            <path id="nautuhoma_e" d="m7.5 86.293h480" stroke="#800000" />
            <path d="m68.6 86.214 1e-4 79.619c-3.3552 37.74-29.583 23.188-31.294-1.9141" stroke="#000000" />
            <path d="m134.7 86.214v92.756l0.14 50.744" stroke="#000000" />
            <path id="dot_k_to_kh" d="m40.3 122.08v3a3 3 0 0 0 0-6 3 3 0 0 0 0 6v-3" stroke="#800080" />
            <path
                d="m156.8 258.94c-12.713-0.0424-26.027 0.87225-38.734 0.52826-15.17-0.55506-35.636-29.674 11.386-29.674 1.8048 0 3.7595-0.0651 5.5631 0"
                 stroke="#0000ff" />
            <path d="m157.1 258.93a38.084 28.776 0 0 1-29.773 32.645 38.084 28.776 0 0 1-44.665-20.804"
                stroke="#0000ff" />
        </g>
        <g stroke="#000000" stroke-linecap="round" stroke-linejoin="round" stroke-opacity=".5">
            <path id="consonant_w"
                d="m262.2 194.12c-10.482 18.128-28.414 35.693-50.789 35.674-25.32-0.0221-43.265-22.227-46.777-45.555-2.5495-16.936-3.922-33.852 7.0726-46.464 12.798-12.882 28.676-11.864 45.692-11.724 0-11.333-0.1841-26.519 0-39.757" />
            <path d="m352.5 86.293v89.012" />
            <path
                d="m352.5 176.65c0 13.3-7.1475 25.589-18.75 32.239-11.602 6.6497-25.898 6.6497-37.5 0-11.603-6.6497-18.75-18.472-18.75-28.603 0-42.102 48.631-18.047 48.631 32.877 0 4.9428-1.5827 22.626-20.203 22.626" />
        </g>
        <g stroke-linecap="round">
            <path id="dot_d_to_dh" d="m270 118.95v3a3 3 0 0 0 0-6 3 3 0 0 0 0 6v-3" stroke="#800080"
                stroke-linejoin="round" stroke-opacity=".5" />
            <path id="vowel_e" d="m285 86.293s20.534-41.854 62.61-62.946" stroke="#0000ff" stroke-linejoin="round"
                stroke-opacity=".5" />
            <path d="m422.4 86.247-30.407 0.04636" stroke="#1c1c1c" stroke-opacity=".67843" />
            <g stroke-linejoin="round" stroke-opacity=".5">
                <path
                    d="m422.4 157.84a41.753 35.796 0 0 0 36.159-17.898 41.753 35.796 0 0 0 0-35.796 41.753 35.796 0 0 0-36.159-17.898"
                    stroke="#000000" />
                <path
                    d="m422.4 157.48a41.753 36.157 0 0 1 41.594 33.006 41.753 36.157 0 0 1-34.344 38.759 41.753 36.157 0 0 1-47.581-26.25"
                    stroke="#000000" />
                <path id="dot_c_to_cr" d="m374.9 160.63v3a3 3 0 0 0 0-6 3 3 0 0 0 0 6v-3" stroke="#800080" />
                <path id="vowel_zero" d="m400.5 268.51 37.123-18.117" stroke="#0000ff" />
            </g>
        </g>
        <rect x="22.5" y="7.5" width="135" height="285" rx="0" ry="0" stroke="#ab00ab" stroke-opacity=".5" />
        <g stroke="#540054" stroke-opacity=".5">
            <rect x="157.5" y="7.5" width="105" height="285" rx="0" ry="0" />
            <rect x="262.5" y="7.5" width="105" height="285" rx="0" ry="0" />
            <rect x="367.5" y="7.5" width="105" height="285" rx="0" ry="0" />

        </g>
    </g>
</svg>