<?xml version="1.0" encoding="UTF-8"?>
<!-- Created with Inkscape (http://www.inkscape.org/) -->
<svg id="svg5" width="960mm" height="300mm" version="1.1" viewBox="0 0 960 300" xml:space="preserve"
    xmlns="http://www.w3.org/2000/svg">
    <g fill="none" stroke-linecap="round">
        <g stroke-linejoin="round" stroke-opacity=".5" stroke-width="15">
            <path id="baseline" d="m-7.5 229.79h960" stroke="#ffff00" />
            <path id="axis2" d="m-7.5 86.293h960" stroke="#800000" />
            <path id="consonant_b" d="m397.5 125.12c0-11.333-0.1841-25.586 0-38.823" stroke="#000000"
                style="paint-order:fill markers stroke" />
            <path id="dot_b_to_bh" d="m345.97 122.08v3a3 3 0 0 0 0-6 3 3 0 0 0 0 6v-3" stroke="#800080"
                style="paint-order:stroke markers fill" />
            <path id="vowel_o_00"
                d="m314.99 86.183c0-35.83-0.26714-62.872 25.851-62.835 30.047 0.84916 60.73 38.966 71.663 62.946"
                stroke="#0000ff" style="paint-order:markers fill stroke" />
            <path id="vowel_o_01" d="m315 229.79c0.40867-47.88-0.1058-95.619 0-143.5" stroke="#0000ff"
                style="paint-order:markers fill stroke" />
            <path id="dot_l_to_lr" d="m540.97 122.08v3a3 3 0 0 0 0-6 3 3 0 0 0 0 6v-3" stroke="#800080"
                style="paint-order:stroke markers fill" />
            <path id="vowel_o__00"
                d="m479.99 86.183c0-35.83-0.26714-62.872 25.851-62.835 30.047 0.84916 60.73 38.966 71.663 62.946"
                stroke="#0000ff" style="paint-order:markers fill stroke" />
            <path id="vowel_o__01" d="m480 229.79c0.40867-47.88-0.1058-95.619 0-143.5" stroke="#0000ff"
                style="paint-order:markers fill stroke" />
        </g>
        <g stroke="#000000" stroke-linejoin="round" stroke-opacity=".5">
            <ellipse id="path232" transform="matrix(.98374 -.17958 0 1 0 0)" cx="404.08" cy="250.03" rx="60.98"
                ry="52.349" stroke-width="15.123" style="paint-order:fill markers stroke" />
            <path id="consonant_r_00" d="m727.94 86.293v104.89" stroke-width="15"
                style="paint-order:markers fill stroke" />
            <path id="consonant_r_01" transform="rotate(-90)"
                d="m-192.52 727.94a37.226 37.5 0 0 1-32.239-18.75 37.226 37.5 0 0 1 0-37.5 37.226 37.5 0 0 1 32.239-18.75"
                stroke-width="15" style="paint-order:fill markers stroke" />
        </g>
        <g stroke="#0000ff" stroke-opacity=".5" stroke-width="15">
            <path id="vowel_ii_01"
                d="m788.35 86.183c0-42.192-7.0758-62.835-25.2-62.835-15.369 0-45.55 17.285-57.714 64.419"
                stroke-linejoin="round" style="paint-order:markers fill stroke" />
            <path id="path220"
                d="m803.43 281.25c-8.7772-11.667-12.883-22.508-14.682-41.438-2.5386-26.709-0.4857-69.52-0.4857-153.47"
                stroke-linejoin="round" style="paint-order:markers fill stroke" />
            <path id="vowel_ii_00" d="m712.94 24.139c-16.062 19.314-24.368 38.518-30 62.154"
                style="paint-order:markers stroke fill" />
        </g>
        <g stroke-linejoin="round" stroke-opacity=".5">
            <path id="consonant_l_00" d="m232.94 86.293v104.89" stroke="#000000" stroke-width="15"
                style="paint-order:markers fill stroke" />
            <path id="consonant_l_01"
                d="m232.94 192.52c0 13.3-7.1475 25.589-18.75 32.239-11.602 6.6497-25.898 6.6497-37.5 0-11.603-6.6497-18.75-15.952-18.75-26.083 0-35.399 55.656-2.8408 72.107 8.1836"
                stroke="#000000" stroke-width="15" style="paint-order:fill markers stroke" />
            <path id="vowel_i_00"
                d="m292.89 86.343c0-42.192-7.0758-62.835-25.2-62.835-15.369 0-45.55 17.285-57.714 64.419"
                stroke="#0000ff" stroke-width="15" style="paint-order:markers fill stroke" />
        </g>
        <g stroke-width="15">
            <path id="vowel_i_01"
                d="m308.06 281.25c-8.7772-11.667-12.883-22.508-14.682-41.438-2.5386-26.709-0.4857-69.52-0.4857-153.47"
                stroke="#0000ff" stroke-linejoin="round" stroke-opacity=".5" style="paint-order:markers fill stroke" />
            <path id="consonant_j_00"
                d="m826.57 86.293v66.57s-2.9982 36.796 17.507 36.796c19.481 0 27.994-64.672 52.521-64.672 6.5036 0 17.507 1.3734 17.507 17.508"
                stroke="#202021" stroke-opacity=".6" style="paint-order:markers stroke fill" />
            <path id="consonant_j_01"
                d="m931.8 262.93c-10.244-11.667-15.036-22.508-17.136-41.438-2.9629-26.709-0.5669 4.9579-0.5669-78.994"
                stroke="#1c1c1c" stroke-linejoin="round" stroke-opacity=".67843"
                style="paint-order:markers fill stroke" />
        </g>
        <path id="dot_j_to_y" d="m859.48 211.14v3a3 3 0 0 0 0-6 3 3 0 0 0 0 6v-3" stroke="#800080"
            stroke-linejoin="round" stroke-opacity=".5" stroke-width="15" style="paint-order:stroke markers fill" />
        <g stroke="#000000" stroke-linejoin="round" stroke-opacity=".5">
            <path id="consonant_l__00" d="m622.5 86.293v104.89" stroke-width="15"
                style="paint-order:markers fill stroke" />
            <path id="consonant_l__01"
                d="m622.5 192.52c0 13.3-7.1475 25.589-18.75 32.239-11.602 6.6497-25.898 6.6497-37.5 0-11.603-6.6497-18.75-15.952-18.75-26.083 0-35.399 55.656-2.8408 72.107 8.1836"
                stroke-width="15" style="paint-order:fill markers stroke" />
            <path id="consonant_x_00" d="m53.619 86.293 1e-4 79.619c-3.3552 37.74-29.583 23.188-31.294-1.9141"
                stroke-width="15" style="paint-order:fill markers stroke" />
            <path id="consonant_x_01" d="m119.76 142.58h-66.231" stroke-width="15"
                style="paint-order:fill markers stroke" />
            <path id="consonant_x_02" d="m119.72 86.293v92.756l0.14 50.744" stroke-width="15"
                style="paint-order:fill markers stroke" />
        </g>
        <path id="vowel_aQ" d="m57.398 262.6c19.509-39.844 37.87 27.063 58.487-13.465" stroke="#0000ff"
            stroke-linejoin="round" stroke-opacity=".5" stroke-width="14.999" style="paint-order:markers fill stroke" />
    </g>
    <g id="layer1" fill="none" stroke-opacity=".5" stroke-width="15">
        <g stroke="#ff00ff">
            <rect id="box2-2" x="142.5" y="7.5" width="165" height="285" rx="0" ry="0" />
            <rect id="box2-3" x="307.5" y="7.5" width="165" height="285" rx="0" ry="0" />
            <rect id="box2-4" x="472.5" y="7.5" width="165" height="285" rx="0" ry="0" />
            <rect id="box2-5" x="637.5" y="7.5" width="165" height="285" rx="0" ry="0" />
        </g>
        <rect id="rect242" x="802.5" y="7.5" width="135" height="285" rx="0" ry="0" stroke="#ab00ab" />
        <rect id="rect247" x="7.5" y="7.5" width="135" height="285" rx="0" ry="0" stroke="#ab00ab" />
    </g>
</svg>