<?xml version="1.0" encoding="UTF-8"?>
<!-- Created with Inkscape (http://www.inkscape.org/) -->
<svg width="315mm" height="300mm" version="1.1" viewBox="0 0 315 300" xml:space="preserve"
    xmlns="http://www.w3.org/2000/svg">
    <g fill="none" stroke-opacity=".5">

        <g stroke="#000000" stroke-linecap="round" stroke-linejoin="round">
            <path d="m0133.2 142.58h-66.231" stroke-width="15" />
            <path d="m0133.2 86.293v92.756l0.14 50.744" stroke-width="15" />
            <path
                d="m0067.1 86.293 1e-4 79.619c-3.3552 37.74-29.583 23.188-31.294-1.9141-0.6721-9.864-0.8694-21.419 31.201-21.419"
                stroke-width="15" />
        </g>
        <path id="nautuhoma_e" d="m0007.5 86.293 300-1.4e-5" stroke="#800000" stroke-linecap="round"
            stroke-linejoin="round" stroke-width="15" />
        <path id="dot_p_to_ph" d="m0180 206.08v3a3 3 0 0 0 0-6 3 3 0 0 0 0 6v-3" stroke="#800080" stroke-linecap="round"
            stroke-linejoin="round" stroke-width="15" />
        <g stroke-width="15">
            <rect x="22.5" y="7.5" width="135" height="285" rx="0" ry="0" stroke="#ab00ab" />
            <rect x="157.5" y="7.5" width="135" height="285" rx="0" ry="0" stroke="#ab00ab" />
            <path d="m0043.7 87.03s20.534-41.854 62.61-62.946" stroke="#0000ff" stroke-linecap="round"
                stroke-linejoin="round" />
        </g>
        <g stroke="#000000" stroke-linecap="round" stroke-linejoin="round">
            <path d="m0225 158.06s-33.79-1.0281-47.036-12.965c-4.455-4.0148-5.9136-11.919-5.9136-11.919"
                stroke-width="15" />
            <path d="m0225 158.06s33.79 1.0281 47.036 12.965c4.455 4.0147 5.9136 11.919 5.9136 11.919"
                stroke-width="15" />
            <path d="m0225 86.293-3e-4 143.5" stroke-width="15" />
        </g>
    </g>
</svg>