<?xml version="1.0" encoding="UTF-8"?>
<!-- Created with Inkscape (http://www.inkscape.org/) -->
<svg width="315mm" height="300mm" version="1.1" viewBox="3508.9 0 315 300" xml:space="preserve"
    xmlns="http://www.w3.org/2000/svg">
    <g fill="none" stroke-linecap="round" stroke-linejoin="round" stroke-opacity=".5" stroke-width="15">
        <path id="baseline" d="m3516.4 229.79h300" stroke="#ffff00" />
        <path d="m3516.4 86.293h300" stroke="#800000" />
        <path id="consonant_zero"
            d="m3606.4 86.226c-0.029 23.393-0.047 66.632-0.047 89.78 0 36.388-36.726 10.288-59.394-3.509 29.44 18.05 36.94 22.946 74.44 57.296"
            stroke="#000000" />
        <path transform="scale(-1)"
            d="m-3621.5-230.11a29.539 28.776 0 0 1-8.8871-32.675 29.539 28.776 0 0 1 29.132-18.362 29.539 28.776 0 0 1 26.954 21.287"
            stroke="#0000ff" />
    </g>
    <g id="derived_gh" transform="translate(553)" fill="none" stroke-linecap="round" stroke-linejoin="round"
        stroke-opacity=".5" stroke-width="15">
        <g id="consonant_g" transform="matrix(-1 0 0 1 3479.7 -5.8e-5)" stroke="#000000">
            <path
                d="m246.32 86.293v76.103s-0.96065 34.198 7.4528 47.319c8.9002 13.879 23.424 20.078 37.5 20.078 11.672 0 22.809-7.4215 31.584-15.118 20.263-17.773 44.122-67.76 44.122-67.76" />
            <path transform="matrix(-.96917 .24639 0 1 0 0)"
                d="m-254.59 220.06a33.364 28.865 0 0 1-26.416 33.269 33.364 28.865 0 0 1-39.036-22.103 33.364 28.865 0 0 1 24.669-34.258 33.364 28.865 0 0 1 40.139 20.571" />
        </g>
        <path id="dot_g_to_gh" d="m3110.4 118.95v3a3 3 0 0 0 0-6 3 3 0 0 0 0 6v-3" stroke="#800080" />
    </g>
    <g id="vowel_ai" transform="translate(816)" fill="none" stroke="#0000ff" stroke-linecap="round"
        stroke-linejoin="round" stroke-opacity=".5" stroke-width="15">
        <path transform="scale(1,-1)"
            d="m2877.2-273.11a37.524 28.776 0 0 1 36.929-19.053 37.524 28.776 0 0 1 34.679 21.395" />
        <path
            d="m2877.4 273.08c16.686-2.7023 54.132-13.736 32.524-13.611-20.875 0.12-35.636-29.674 11.386-29.674 1.8048 0 3.7595-0.0651 5.5631 0" />
    </g>
    <g fill="none" stroke-opacity=".5">
        <rect x="3531.4" y="7.5" width="105" height="285" rx="0" ry="0" stroke="#540054" stroke-width="15" />
        <rect x="3636.4" y="7.5" width="165" height="285" rx="0" ry="0" stroke="#ff00ff" stroke-width="15" />
        <g stroke="#c87137" stroke-linecap="round" stroke-linejoin="round" stroke-width="15">
            <path transform="translate(3367.5 78.774)" d="m163.85 7.5195v20.924" />
            <path transform="translate(3367.5 78.774)" d="m178.85 7.5195v20.924" />
            <path transform="translate(3367.5 78.774)" d="m193.85 7.5195v20.924" />
            <path transform="translate(3367.5 78.774)" d="m208.85 7.5195v20.924" />
            <path transform="translate(3367.5 78.774)" d="m223.85 7.5195v20.924" />
            <path transform="translate(3367.5 78.774)" d="m238.85 7.5195v20.924" />
            <path transform="translate(3367.5 78.774)" d="m253.85 7.5195v20.924" />
            <path transform="translate(3367.5 78.774)" d="m268.85 7.5195v20.924" />
            <path transform="translate(3472.5 66.017)" d="m163.85 7.5195v20.924" />
            <path transform="translate(3472.5 66.017)" d="m178.85 7.5195v20.924" />
            <path transform="translate(3472.5 66.017)" d="m193.85 7.5195v20.924" />
            <path transform="translate(3472.5 66.017)" d="m208.85 7.5195v20.924" />
            <path transform="translate(3472.5 66.017)" d="m223.85 7.5195v20.924" />
            <path transform="translate(3472.5 66.017)" d="m238.85 7.5195v20.924" />
            <path transform="translate(3472.5 66.017)" d="m253.85 7.5195v20.924" />
            <path transform="translate(3472.5 66.017)" d="m268.85 7.5195v20.924" />
            <path transform="translate(3472.5 66.017)" d="m283.85 7.5195v20.924" />
            <path transform="translate(3472.5 66.017)" d="m298.85 7.5195v20.924" />
            <path transform="translate(3472.5 66.017)" d="m313.85 7.5195v20.924" />
            <path transform="translate(3472.5 66.017)" d="m328.85 7.5195v20.924" />
        </g>
    </g>
</svg>